<svg xmlns="http://www.w3.org/2000/svg" xmlns:xlink="http://www.w3.org/1999/xlink" xmlns:lucid="lucid" width="980" height="485"><g transform="translate(-520 -806)" lucid:page-tab-id="0_0"><path d="M0 0h1760v1360H0z" fill="#fff"/><path d="M960 972c0 4.42-17.9 8-40 8s-40-3.58-40-8v-64c0-4.42 17.9-8 40-8s40 3.58 40 8z" stroke="#000" stroke-width="2" fill="#fff"/><path d="M960 908c0 4.42-17.9 8-40 8s-40-3.58-40-8" stroke="#000" stroke-width="2" fill="none"/><use xlink:href="#a" transform="matrix(1,0,0,1,885,921) translate(12.049999999999997 31.275)"/><path d="M540 912c0-1.1.9-2 2-2h116c1.1 0 2 .9 2 2v56c0 1.1-.9 2-2 2H542c-1.1 0-2-.9-2-2z" stroke="#000" stroke-width="2" fill="#fff"/><use xlink:href="#b" transform="matrix(1,0,0,1,545,915) translate(9.549999999999997 30.025)"/><path d="M600 1001v278M600 1001.03V1000M600 1278.97v1.03M760 1001v278M760 1001.03V1000M760 1278.97v1.03" stroke="#000" stroke-width="2" fill="none"/><path d="M633.05 1041H601v-2h32.05zm108.45 0h-14.55v-2h14.55z"/><path d="M601.03 1041H600v-2h1.03zM756.76 1040l-14.26 4.64v-9.28z"/><path d="M760 1040l-18.5 6v-12zm-16.5 3.26l10.03-3.26-10.03-3.26z"/><use xlink:href="#c" transform="matrix(1,0,0,1,633.05,1029.2) translate(0 14.4)"/><use xlink:href="#d" transform="matrix(1,0,0,1,633.05,1029.2) translate(83.9 14.4)"/><path d="M920 1001v278M920 1001.03V1000M920 1278.97v1.03" stroke="#000" stroke-width="2" fill="none"/><path d="M793.05 1061H761v-2h32.05zm108.45 0h-14.55v-2h14.55z"/><path d="M761.03 1061H760v-2h1.03zM916.76 1060l-14.26 4.64v-9.28z"/><path d="M920 1060l-18.5 6v-12zm-16.5 3.26l10.03-3.26-10.03-3.26z"/><use xlink:href="#c" transform="matrix(1,0,0,1,793.05,1049.2) translate(0 14.4)"/><use xlink:href="#d" transform="matrix(1,0,0,1,793.05,1049.2) translate(83.9 14.4)"/><path d="M795.52 1081H778.5v-2h17.02zm123.48 0h-34.52v-2H919zM777.5 1084.64l-14.26-4.64 14.26-4.64z"/><path d="M778.5 1086l-18.5-6 18.5-6zm-12.03-6l10.03 3.26v-6.52zM920 1081h-1.03v-2H920z"/><use xlink:href="#e" transform="matrix(1,0,0,1,795.525,1069.2) translate(0 14.4)"/><use xlink:href="#d" transform="matrix(1,0,0,1,795.525,1069.2) translate(78.95 14.4)"/><path d="M635.52 1101H618.5v-2h17.02zm123.48 0h-34.52v-2H759zM617.5 1104.64l-14.26-4.64 14.26-4.64z"/><path d="M618.5 1106l-18.5-6 18.5-6zm-12.03-6l10.03 3.26v-6.52zM760 1101h-1.03v-2H760z"/><use xlink:href="#e" transform="matrix(1,0,0,1,635.525,1089.2) translate(0 14.4)"/><use xlink:href="#d" transform="matrix(1,0,0,1,635.525,1089.2) translate(78.95 14.4)"/><path d="M633.05 1121H601v-2h32.05zm108.45 0h-14.55v-2h14.55z"/><path d="M601.03 1121H600v-2h1.03zM756.76 1120l-14.26 4.64v-9.28z"/><path d="M760 1120l-18.5 6v-12zm-16.5 3.26l10.03-3.26-10.03-3.26z"/><use xlink:href="#c" transform="matrix(1,0,0,1,633.05,1109.2) translate(0 14.4)"/><use xlink:href="#f" transform="matrix(1,0,0,1,633.05,1109.2) translate(83.9 14.4)"/><path d="M635.52 1181H618.5v-2h17.02zm123.48 0h-34.52v-2H759zM617.5 1184.64l-14.26-4.64 14.26-4.64z"/><path d="M618.5 1186l-18.5-6 18.5-6zm-12.03-6l10.03 3.26v-6.52zM760 1181h-1.03v-2H760z"/><use xlink:href="#e" transform="matrix(1,0,0,1,635.525,1169.2) translate(0 14.4)"/><use xlink:href="#f" transform="matrix(1,0,0,1,635.525,1169.2) translate(78.95 14.4)"/><path d="M793.05 1141H761v-2h32.05zm108.45 0h-14.55v-2h14.55z"/><path d="M761.03 1141H760v-2h1.03zM916.76 1140l-14.26 4.64v-9.28z"/><path d="M920 1140l-18.5 6v-12zm-16.5 3.26l10.03-3.26-10.03-3.26z"/><use xlink:href="#c" transform="matrix(1,0,0,1,793.05,1129.2) translate(0 14.4)"/><use xlink:href="#f" transform="matrix(1,0,0,1,793.05,1129.2) translate(83.9 14.4)"/><path d="M795.52 1161H778.5v-2h17.02zm123.48 0h-34.52v-2H919zM777.5 1164.64l-14.26-4.64 14.26-4.64z"/><path d="M778.5 1166l-18.5-6 18.5-6zm-12.03-6l10.03 3.26v-6.52zM920 1161h-1.03v-2H920z"/><use xlink:href="#e" transform="matrix(1,0,0,1,795.525,1149.2) translate(0 14.4)"/><use xlink:href="#f" transform="matrix(1,0,0,1,795.525,1149.2) translate(78.95 14.4)"/><path d="M633.05 1201H601v-2h32.05zm108.45 0h-14.55v-2h14.55z"/><path d="M601.03 1201H600v-2h1.03zM756.76 1200l-14.26 4.64v-9.28z"/><path d="M760 1200l-18.5 6v-12zm-16.5 3.26l10.03-3.26-10.03-3.26z"/><use xlink:href="#c" transform="matrix(1,0,0,1,633.05,1189.2) translate(0 14.4)"/><use xlink:href="#g" transform="matrix(1,0,0,1,633.05,1189.2) translate(83.9 14.4)"/><path d="M635.52 1261H618.5v-2h17.02zm123.48 0h-34.52v-2H759zM617.5 1264.64l-14.26-4.64 14.26-4.64z"/><path d="M618.5 1266l-18.5-6 18.5-6zm-12.03-6l10.03 3.26v-6.52zM760 1261h-1.03v-2H760z"/><use xlink:href="#e" transform="matrix(1,0,0,1,635.525,1249.2) translate(0 14.4)"/><use xlink:href="#g" transform="matrix(1,0,0,1,635.525,1249.2) translate(78.95 14.4)"/><path d="M793.05 1221H761v-2h32.05zm108.45 0h-14.55v-2h14.55z"/><path d="M761.03 1221H760v-2h1.03zM916.76 1220l-14.26 4.64v-9.28z"/><path d="M920 1220l-18.5 6v-12zm-16.5 3.26l10.03-3.26-10.03-3.26z"/><use xlink:href="#c" transform="matrix(1,0,0,1,793.05,1209.2) translate(0 14.4)"/><use xlink:href="#g" transform="matrix(1,0,0,1,793.05,1209.2) translate(83.9 14.4)"/><path d="M795.52 1241H778.5v-2h17.02zm123.48 0h-34.52v-2H919zM777.5 1244.64l-14.26-4.64 14.26-4.64z"/><path d="M778.5 1246l-18.5-6 18.5-6zm-12.03-6l10.03 3.26v-6.52zM920 1241h-1.03v-2H920z"/><use xlink:href="#e" transform="matrix(1,0,0,1,795.525,1229.2) translate(0 14.4)"/><use xlink:href="#g" transform="matrix(1,0,0,1,795.525,1229.2) translate(78.95 14.4)"/><path d="M711 956c-11.6 0-21-7.16-21-16 0-7.07 5.7-13.03 14.5-15.22C704 904 739 900 753 908c7-12 42-8 42 4 21-4 42 12 28 32 14 16 0 36-28 28-7 10.4-35 10.4-42 0-14 8-42 4-42-16z" stroke="#000" stroke-width="2" fill="#fff"/><use xlink:href="#h" transform="matrix(1,0,0,1,695,905) translate(32.55 38.4625)"/><path d="M632.94 828c0-1.1.9-2 2-2h250.12c1.1 0 2 .9 2 2v70c0 1.1-.9 2-2 2H634.94c-1.1 0-2-.9-2-2z" stroke="#000" stroke-opacity="0" stroke-width="2" fill="#fff" fill-opacity="0"/><use xlink:href="#i" transform="matrix(1,0,0,1,637.9411764705883,831) translate(5.796296296296305 37.333333333333336)"/><use xlink:href="#j" transform="matrix(1,0,0,1,637.9411764705883,831) translate(93.05555555555556 37.333333333333336)"/><path d="M1120 1001v203.77M1120 1001.03V1000M1120 1204.75v1.02M1280 1001v203.77M1280 1001.03V1000M1280 1204.75v1.02" stroke="#000" stroke-width="2" fill="none"/><path d="M1148.55 1041H1121v-2h27.55zm112.95 0h-10.05v-2h10.05z"/><path d="M1121.03 1041H1120v-2h1.03zM1276.76 1040l-14.26 4.64v-9.28z"/><path d="M1280 1040l-18.5 6v-12zm-16.5 3.26l10.03-3.26-10.03-3.26z"/><use xlink:href="#k" transform="matrix(1,0,0,1,1148.55,1029.2) translate(0 14.4)"/><use xlink:href="#l" transform="matrix(1,0,0,1,1148.55,1029.2) translate(15 14.4)"/><path d="M1440 1001v203.77M1440 1001.03V1000M1440 1204.75v1.02" stroke="#000" stroke-width="2" fill="none"/><path d="M1308.55 1061H1281v-2h27.55zm112.95 0h-10.05v-2h10.05z"/><path d="M1281.03 1061H1280v-2h1.03zM1436.76 1060l-14.26 4.64v-9.28z"/><path d="M1440 1060l-18.5 6v-12zm-16.5 3.26l10.03-3.26-10.03-3.26z"/><use xlink:href="#k" transform="matrix(1,0,0,1,1308.55,1049.2) translate(0 14.4)"/><use xlink:href="#l" transform="matrix(1,0,0,1,1308.55,1049.2) translate(15 14.4)"/><path d="M1315.53 1081h-17.03v-2h17.03zm123.47 0h-34.53v-2H1439zM1297.5 1084.64l-14.26-4.64 14.26-4.64z"/><path d="M1298.5 1086l-18.5-6 18.5-6zm-12.03-6l10.03 3.26v-6.52zM1440 1081h-1.03v-2h1.03z"/><use xlink:href="#e" transform="matrix(1,0,0,1,1315.525,1069.2) translate(0 14.4)"/><use xlink:href="#d" transform="matrix(1,0,0,1,1315.525,1069.2) translate(78.95 14.4)"/><path d="M1155.53 1101h-17.03v-2h17.03zm123.47 0h-34.53v-2H1279zM1137.5 1104.64l-14.26-4.64 14.26-4.64z"/><path d="M1138.5 1106l-18.5-6 18.5-6zm-12.03-6l10.03 3.26v-6.52zM1280 1101h-1.03v-2h1.03z"/><use xlink:href="#e" transform="matrix(1,0,0,1,1155.525,1089.2) translate(0 14.4)"/><use xlink:href="#d" transform="matrix(1,0,0,1,1155.525,1089.2) translate(78.95 14.4)"/><path d="M1315.53 1101h-17.03v-2h17.03zm123.47 0h-34.53v-2H1439zM1297.5 1104.64l-14.26-4.64 14.26-4.64z"/><path d="M1298.5 1106l-18.5-6 18.5-6zm-12.03-6l10.03 3.26v-6.52zM1440 1101h-1.03v-2h1.03z"/><use xlink:href="#e" transform="matrix(1,0,0,1,1315.525,1089.2) translate(0 14.4)"/><use xlink:href="#f" transform="matrix(1,0,0,1,1315.525,1089.2) translate(78.95 14.4)"/><path d="M1315.53 1121h-17.03v-2h17.03zm123.47 0h-34.53v-2H1439zM1297.5 1124.64l-14.26-4.64 14.26-4.64z"/><path d="M1298.5 1126l-18.5-6 18.5-6zm-12.03-6l10.03 3.26v-6.52zM1440 1121h-1.03v-2h1.03z"/><use xlink:href="#e" transform="matrix(1,0,0,1,1315.525,1109.2) translate(0 14.4)"/><use xlink:href="#g" transform="matrix(1,0,0,1,1315.525,1109.2) translate(78.95 14.4)"/><path d="M1155.53 1121h-17.03v-2h17.03zm123.47 0h-34.53v-2H1279zM1137.5 1124.64l-14.26-4.64 14.26-4.64z"/><path d="M1138.5 1126l-18.5-6 18.5-6zm-12.03-6l10.03 3.26v-6.52zM1280 1121h-1.03v-2h1.03z"/><g><use xlink:href="#e" transform="matrix(1,0,0,1,1155.525,1109.2) translate(0 14.4)"/><use xlink:href="#f" transform="matrix(1,0,0,1,1155.525,1109.2) translate(78.95 14.4)"/></g><path d="M1155.53 1141h-17.03v-2h17.03zm123.47 0h-34.53v-2H1279zM1137.5 1144.64l-14.26-4.64 14.26-4.64z"/><path d="M1138.5 1146l-18.5-6 18.5-6zm-12.03-6l10.03 3.26v-6.52zM1280 1141h-1.03v-2h1.03z"/><g><use xlink:href="#e" transform="matrix(1,0,0,1,1155.525,1129.2) translate(0 14.4)"/><use xlink:href="#g" transform="matrix(1,0,0,1,1155.525,1129.2) translate(78.95 14.4)"/></g><path d="M1480 972c0 4.42-17.9 8-40 8s-40-3.58-40-8v-64c0-4.42 17.9-8 40-8s40 3.58 40 8z" stroke="#000" stroke-width="2" fill="#fff"/><path d="M1480 908c0 4.42-17.9 8-40 8s-40-3.58-40-8" stroke="#000" stroke-width="2" fill="none"/><g><use xlink:href="#a" transform="matrix(1,0,0,1,1405,921) translate(12.049999999999997 31.275)"/></g><path d="M1060 912c0-1.1.9-2 2-2h116c1.1 0 2 .9 2 2v56c0 1.1-.9 2-2 2h-116c-1.1 0-2-.9-2-2z" stroke="#000" stroke-width="2" fill="#fff"/><g><use xlink:href="#m" transform="matrix(1,0,0,1,1065,915) translate(9.549999999999997 17.525)"/><use xlink:href="#n" transform="matrix(1,0,0,1,1065,915) translate(37.025 39.125)"/></g><path d="M1231 956c-11.6 0-21-7.16-21-16 0-7.07 5.7-13.03 14.5-15.22C1224 904 1259 900 1273 908c7-12 42-8 42 4 21-4 42 12 28 32 14 16 0 36-28 28-7 10.4-35 10.4-42 0-14 8-42 4-42-16z" stroke="#000" stroke-width="2" fill="#fff"/><g><use xlink:href="#h" transform="matrix(1,0,0,1,1215,905) translate(32.55 38.4625)"/></g><path d="M1152.94 828c0-1.1.9-2 2-2h250.12c1.1 0 2 .9 2 2v70c0 1.1-.9 2-2 2h-250.12c-1.1 0-2-.9-2-2z" stroke="#000" stroke-opacity="0" stroke-width="2" fill="#fff" fill-opacity="0"/><g><use xlink:href="#o" transform="matrix(1,0,0,1,1157.9411764705883,831) translate(1.3888888888888857 37.333333333333336)"/><use xlink:href="#j" transform="matrix(1,0,0,1,1157.9411764705883,831) translate(97.46296296296298 37.333333333333336)"/></g><defs><path d="M233-177c-1 41-23 64-60 70L243 0h-38l-65-103H63V0H30v-248c88 3 205-21 203 71zM63-129c60-2 137 13 137-47 0-61-80-42-137-45v92" id="p"/><path d="M100-194c63 0 86 42 84 106H49c0 40 14 67 53 68 26 1 43-12 49-29l28 8c-11 28-37 45-77 45C44 4 14-33 15-96c1-61 26-98 85-98zm52 81c6-60-76-77-97-28-3 7-6 17-6 28h103" id="q"/><path d="M85-194c31 0 48 13 60 33l-1-100h32l1 261h-30c-2-10 0-23-3-31C134-8 116 4 85 4 32 4 16-35 15-94c0-66 23-100 70-100zm9 24c-40 0-46 34-46 75 0 40 6 74 45 74 42 0 51-32 51-76 0-42-9-74-50-73" id="r"/><path d="M24-231v-30h32v30H24zM24 0v-190h32V0H24" id="s"/><path d="M135-143c-3-34-86-38-87 0 15 53 115 12 119 90S17 21 10-45l28-5c4 36 97 45 98 0-10-56-113-15-118-90-4-57 82-63 122-42 12 7 21 19 24 35" id="t"/><g id="a"><use transform="matrix(0.05,0,0,0.05,0,0)" xlink:href="#p"/><use transform="matrix(0.05,0,0,0.05,12.950000000000001,0)" xlink:href="#q"/><use transform="matrix(0.05,0,0,0.05,22.950000000000003,0)" xlink:href="#r"/><use transform="matrix(0.05,0,0,0.05,32.95,0)" xlink:href="#s"/><use transform="matrix(0.05,0,0,0.05,36.900000000000006,0)" xlink:href="#t"/></g><path d="M212-179c-10-28-35-45-73-45-59 0-87 40-87 99 0 60 29 101 89 101 43 0 62-24 78-52l27 14C228-24 195 4 139 4 59 4 22-46 18-125c-6-104 99-153 187-111 19 9 31 26 39 46" id="u"/><path d="M100-194c62-1 85 37 85 99 1 63-27 99-86 99S16-35 15-95c0-66 28-99 85-99zM99-20c44 1 53-31 53-75 0-43-8-75-51-75s-53 32-53 75 10 74 51 75" id="v"/><path d="M117-194c89-4 53 116 60 194h-32v-121c0-31-8-49-39-48C34-167 62-67 57 0H25l-1-190h30c1 10-1 24 2 32 11-22 29-35 61-36" id="w"/><path d="M96-169c-40 0-48 33-48 73s9 75 48 75c24 0 41-14 43-38l32 2c-6 37-31 61-74 61-59 0-76-41-82-99-10-93 101-131 147-64 4 7 5 14 7 22l-32 3c-4-21-16-35-41-35" id="x"/><path d="M59-47c-2 24 18 29 38 22v24C64 9 27 4 27-40v-127H5v-23h24l9-43h21v43h35v23H59v120" id="y"/><g id="b"><use transform="matrix(0.05,0,0,0.05,0,0)" xlink:href="#u"/><use transform="matrix(0.05,0,0,0.05,12.950000000000001,0)" xlink:href="#v"/><use transform="matrix(0.05,0,0,0.05,22.950000000000003,0)" xlink:href="#w"/><use transform="matrix(0.05,0,0,0.05,32.95,0)" xlink:href="#w"/><use transform="matrix(0.05,0,0,0.05,42.95,0)" xlink:href="#q"/><use transform="matrix(0.05,0,0,0.05,52.95,0)" xlink:href="#x"/><use transform="matrix(0.05,0,0,0.05,61.95,0)" xlink:href="#y"/><use transform="matrix(0.05,0,0,0.05,66.95,0)" xlink:href="#s"/><use transform="matrix(0.05,0,0,0.05,70.9,0)" xlink:href="#v"/><use transform="matrix(0.05,0,0,0.05,80.9,0)" xlink:href="#w"/></g><path d="M210-169c-67 3-38 105-44 169h-31v-121c0-29-5-50-35-48C34-165 62-65 56 0H25l-1-190h30c1 10-1 24 2 32 10-44 99-50 107 0 11-21 27-35 58-36 85-2 47 119 55 194h-31v-121c0-29-5-49-35-48" id="z"/><path d="M141-36C126-15 110 5 73 4 37 3 15-17 15-53c-1-64 63-63 125-63 3-35-9-54-41-54-24 1-41 7-42 31l-33-3c5-37 33-52 76-52 45 0 72 20 72 64v82c-1 20 7 32 28 27v20c-31 9-61-2-59-35zM48-53c0 20 12 33 32 33 41-3 63-29 60-74-43 2-92-5-92 41" id="A"/><g id="c"><use transform="matrix(0.05,0,0,0.05,0,0)" xlink:href="#x"/><use transform="matrix(0.05,0,0,0.05,9,0)" xlink:href="#v"/><use transform="matrix(0.05,0,0,0.05,19,0)" xlink:href="#z"/><use transform="matrix(0.05,0,0,0.05,33.95,0)" xlink:href="#z"/><use transform="matrix(0.05,0,0,0.05,48.900000000000006,0)" xlink:href="#A"/><use transform="matrix(0.05,0,0,0.05,58.900000000000006,0)" xlink:href="#w"/><use transform="matrix(0.05,0,0,0.05,68.9,0)" xlink:href="#r"/></g><path d="M27 0v-27h64v-190l-56 39v-29l58-41h29v221h61V0H27" id="B"/><use transform="matrix(0.05,0,0,0.05,0,0)" xlink:href="#B" id="d"/><path d="M114-163C36-179 61-72 57 0H25l-1-190h30c1 12-1 29 2 39 6-27 23-49 58-41v29" id="C"/><path d="M115-194c55 1 70 41 70 98S169 2 115 4C84 4 66-9 55-30l1 105H24l-1-265h31l2 30c10-21 28-34 59-34zm-8 174c40 0 45-34 45-75s-6-73-45-74c-42 0-51 32-51 76 0 43 10 73 51 73" id="D"/><g id="e"><use transform="matrix(0.05,0,0,0.05,0,0)" xlink:href="#C"/><use transform="matrix(0.05,0,0,0.05,5.95,0)" xlink:href="#q"/><use transform="matrix(0.05,0,0,0.05,15.949999999999998,0)" xlink:href="#t"/><use transform="matrix(0.05,0,0,0.05,24.95,0)" xlink:href="#D"/><use transform="matrix(0.05,0,0,0.05,34.95,0)" xlink:href="#v"/><use transform="matrix(0.05,0,0,0.05,44.95,0)" xlink:href="#w"/><use transform="matrix(0.05,0,0,0.05,54.95,0)" xlink:href="#t"/><use transform="matrix(0.05,0,0,0.05,63.95,0)" xlink:href="#q"/></g><path d="M101-251c82-7 93 87 43 132L82-64C71-53 59-42 53-27h129V0H18c2-99 128-94 128-182 0-28-16-43-45-43s-46 15-49 41l-32-3c6-41 34-60 81-64" id="E"/><use transform="matrix(0.05,0,0,0.05,0,0)" xlink:href="#E" id="f"/><path d="M126-127c33 6 58 20 58 59 0 88-139 92-164 29-3-8-5-16-6-25l32-3c6 27 21 44 54 44 32 0 52-15 52-46 0-38-36-46-79-43v-28c39 1 72-4 72-42 0-27-17-43-46-43-28 0-47 15-49 41l-32-3c6-42 35-63 81-64 48-1 79 21 79 65 0 36-21 52-52 59" id="F"/><use transform="matrix(0.05,0,0,0.05,0,0)" xlink:href="#F" id="g"/><path d="M206 0h-36l-40-164L89 0H53L-1-190h32L70-26l43-164h34l41 164 42-164h31" id="G"/><path d="M143 0L79-87 56-68V0H24v-261h32v163l83-92h37l-77 82L181 0h-38" id="H"/><g id="h"><use transform="matrix(0.05,0,0,0.05,0,0)" xlink:href="#w"/><use transform="matrix(0.05,0,0,0.05,10,0)" xlink:href="#q"/><use transform="matrix(0.05,0,0,0.05,20,0)" xlink:href="#y"/><use transform="matrix(0.05,0,0,0.05,25,0)" xlink:href="#G"/><use transform="matrix(0.05,0,0,0.05,37.95,0)" xlink:href="#v"/><use transform="matrix(0.05,0,0,0.05,47.95,0)" xlink:href="#C"/><use transform="matrix(0.05,0,0,0.05,53.900000000000006,0)" xlink:href="#H"/></g><path d="M169-182c-1-43-94-46-97-3 18 66 151 10 154 114 3 95-165 93-204 36-6-8-10-19-12-30l50-8c3 46 112 56 116 5-17-69-150-10-154-114-4-87 153-88 188-35 5 8 8 18 10 28" id="I"/><path d="M25-224v-37h50v37H25zM25 0v-190h50V0H25" id="J"/><path d="M135-194c87-1 58 113 63 194h-50c-7-57 23-157-34-157-59 0-34 97-39 157H25l-1-190h47c2 12-1 28 3 38 12-26 28-41 61-42" id="K"/><path d="M195-6C206 82 75 100 31 46c-4-6-6-13-8-21l49-6c3 16 16 24 34 25 40 0 42-37 40-79-11 22-30 35-61 35-53 0-70-43-70-97 0-56 18-96 73-97 30 0 46 14 59 34l2-30h47zm-90-29c32 0 41-27 41-63 0-35-9-62-40-62-32 0-39 29-40 63 0 36 9 62 39 62" id="L"/><path d="M25 0v-261h50V0H25" id="M"/><path d="M185-48c-13 30-37 53-82 52C43 2 14-33 14-96s30-98 90-98c62 0 83 45 84 108H66c0 31 8 55 39 56 18 0 30-7 34-22zm-45-69c5-46-57-63-70-21-2 6-4 13-4 21h74" id="N"/><g id="i"><use transform="matrix(0.07407407407407408,0,0,0.07407407407407408,0,0)" xlink:href="#I"/><use transform="matrix(0.07407407407407408,0,0,0.07407407407407408,17.77777777777778,0)" xlink:href="#J"/><use transform="matrix(0.07407407407407408,0,0,0.07407407407407408,25.185185185185187,0)" xlink:href="#K"/><use transform="matrix(0.07407407407407408,0,0,0.07407407407407408,41.40740740740741,0)" xlink:href="#L"/><use transform="matrix(0.07407407407407408,0,0,0.07407407407407408,57.62962962962964,0)" xlink:href="#M"/><use transform="matrix(0.07407407407407408,0,0,0.07407407407407408,65.03703703703704,0)" xlink:href="#N"/></g><path d="M67-125c0 53 21 87 73 88 37 1 54-22 65-47l45 17C233-25 199 4 140 4 58 4 20-42 15-125 8-235 124-281 211-232c18 10 29 29 36 50l-46 12c-8-25-30-41-62-41-52 0-71 34-72 86" id="O"/><path d="M110-194c64 0 96 36 96 99 0 64-35 99-97 99-61 0-95-36-95-99 0-62 34-99 96-99zm-1 164c35 0 45-28 45-65 0-40-10-65-43-65-34 0-45 26-45 65 0 36 10 65 43 65" id="P"/><path d="M190-63c-7 42-38 67-86 67-59 0-84-38-90-98-12-110 154-137 174-36l-49 2c-2-19-15-32-35-32-30 0-35 28-38 64-6 74 65 87 74 30" id="Q"/><path d="M115-3C79 11 28 4 28-45v-112H4v-33h27l15-45h31v45h36v33H77v99c-1 23 16 31 38 25v30" id="R"/><g id="j"><use transform="matrix(0.07407407407407408,0,0,0.07407407407407408,0,0)" xlink:href="#O"/><use transform="matrix(0.07407407407407408,0,0,0.07407407407407408,19.185185185185187,0)" xlink:href="#P"/><use transform="matrix(0.07407407407407408,0,0,0.07407407407407408,35.40740740740741,0)" xlink:href="#K"/><use transform="matrix(0.07407407407407408,0,0,0.07407407407407408,51.62962962962963,0)" xlink:href="#K"/><use transform="matrix(0.07407407407407408,0,0,0.07407407407407408,67.85185185185186,0)" xlink:href="#N"/><use transform="matrix(0.07407407407407408,0,0,0.07407407407407408,82.66666666666667,0)" xlink:href="#Q"/><use transform="matrix(0.07407407407407408,0,0,0.07407407407407408,97.4814814814815,0)" xlink:href="#R"/><use transform="matrix(0.07407407407407408,0,0,0.07407407407407408,106.2962962962963,0)" xlink:href="#J"/><use transform="matrix(0.07407407407407408,0,0,0.07407407407407408,113.7037037037037,0)" xlink:href="#P"/><use transform="matrix(0.07407407407407408,0,0,0.07407407407407408,129.92592592592592,0)" xlink:href="#K"/></g><use transform="matrix(0.05,0,0,0.05,0,0)" xlink:href="#F" id="k"/><g id="l"><use transform="matrix(0.05,0,0,0.05,0,0)" xlink:href="#x"/><use transform="matrix(0.05,0,0,0.05,9,0)" xlink:href="#v"/><use transform="matrix(0.05,0,0,0.05,19,0)" xlink:href="#z"/><use transform="matrix(0.05,0,0,0.05,33.95,0)" xlink:href="#z"/><use transform="matrix(0.05,0,0,0.05,48.900000000000006,0)" xlink:href="#A"/><use transform="matrix(0.05,0,0,0.05,58.900000000000006,0)" xlink:href="#w"/><use transform="matrix(0.05,0,0,0.05,68.9,0)" xlink:href="#r"/><use transform="matrix(0.05,0,0,0.05,78.9,0)" xlink:href="#t"/></g><g id="m"><use transform="matrix(0.05,0,0,0.05,0,0)" xlink:href="#u"/><use transform="matrix(0.05,0,0,0.05,12.950000000000001,0)" xlink:href="#v"/><use transform="matrix(0.05,0,0,0.05,22.950000000000003,0)" xlink:href="#w"/><use transform="matrix(0.05,0,0,0.05,32.95,0)" xlink:href="#w"/><use transform="matrix(0.05,0,0,0.05,42.95,0)" xlink:href="#q"/><use transform="matrix(0.05,0,0,0.05,52.95,0)" xlink:href="#x"/><use transform="matrix(0.05,0,0,0.05,61.95,0)" xlink:href="#y"/><use transform="matrix(0.05,0,0,0.05,66.95,0)" xlink:href="#s"/><use transform="matrix(0.05,0,0,0.05,70.9,0)" xlink:href="#v"/><use transform="matrix(0.05,0,0,0.05,80.9,0)" xlink:href="#w"/></g><path d="M30-248c87 1 191-15 191 75 0 78-77 80-158 76V0H30v-248zm33 125c57 0 124 11 124-50 0-59-68-47-124-48v98" id="S"/><path d="M24 0v-261h32V0H24" id="T"/><g id="n"><use transform="matrix(0.05,0,0,0.05,0,0)" xlink:href="#S"/><use transform="matrix(0.05,0,0,0.05,12,0)" xlink:href="#v"/><use transform="matrix(0.05,0,0,0.05,22,0)" xlink:href="#v"/><use transform="matrix(0.05,0,0,0.05,32,0)" xlink:href="#T"/></g><path d="M24-248c93 1 206-16 204 79-1 75-69 88-152 82V0H24v-248zm52 121c47 0 100 7 100-41 0-47-54-39-100-39v80" id="U"/><path d="M88-194c31-1 46 15 58 34l-1-101h50l1 261h-48c-2-10 0-23-3-31C134-8 116 4 84 4 32 4 16-41 15-95c0-56 19-97 73-99zm17 164c33 0 40-30 41-66 1-37-9-64-41-64s-38 30-39 65c0 43 13 65 39 65" id="V"/><g id="o"><use transform="matrix(0.07407407407407408,0,0,0.07407407407407408,0,0)" xlink:href="#U"/><use transform="matrix(0.07407407407407408,0,0,0.07407407407407408,17.77777777777778,0)" xlink:href="#P"/><use transform="matrix(0.07407407407407408,0,0,0.07407407407407408,34,0)" xlink:href="#P"/><use transform="matrix(0.07407407407407408,0,0,0.07407407407407408,50.22222222222223,0)" xlink:href="#M"/><use transform="matrix(0.07407407407407408,0,0,0.07407407407407408,57.62962962962964,0)" xlink:href="#N"/><use transform="matrix(0.07407407407407408,0,0,0.07407407407407408,72.44444444444446,0)" xlink:href="#V"/></g></defs></g></svg>